<?xml version="1.0" encoding="utf-8"?>
<!-- Generator: Adobe Illustrator 23.0.4, SVG Export Plug-In . SVG Version: 6.00 Build 0)  -->
<svg version="1.1" id="Layer_1" xmlns="http://www.w3.org/2000/svg" xmlns:xlink="http://www.w3.org/1999/xlink" x="0px" y="0px"
	 viewBox="0 0 575.5 166" style="enable-background:new 0 0 575.5 166;" xml:space="preserve">
<style type="text/css">
	.st0{fill:#FFFFFF;}
</style>
<g id="XMLID_465_">
	<path id="XMLID_16802_" class="st0" d="M531.2,5.8h-95.6c-15.5,0-28,12.5-28,28v95.6c0,15.5,12.5,28,28,28h95.6
		c15.5,0,28-12.5,28-28V33.8C559.2,18.3,546.7,5.8,531.2,5.8z M483.4,13.9c10.9,0,19.8,8.9,19.8,19.8s-8.9,19.8-19.8,19.8
		c-10.9,0-19.8-8.9-19.8-19.8S472.4,13.9,483.4,13.9z M483.4,149.2c-10.9,0-19.8-8.9-19.8-19.8s8.9-19.8,19.8-19.8
		c10.9,0,19.8,8.9,19.8,19.8S494.3,149.2,483.4,149.2z M531.2,57.7c-3.6,0-6.9,0.8-10,2.2c-8.2,3.8-13.9,12.1-13.9,21.7
		s5.7,17.9,13.9,21.7c3.1,1.4,6.4,2.2,10,2.2c13.2,0,23.9,10.7,23.9,23.9s-10.7,23.9-23.9,23.9c-13.2,0-23.9-10.7-23.9-23.9
		c0-3.6-0.8-6.9-2.2-10c-3.8-8.2-12.1-13.9-21.7-13.9s-17.9,5.7-21.7,13.9c-1.4,3.1-2.2,6.4-2.2,10c0,13.2-10.7,23.9-23.9,23.9
		s-23.9-10.7-23.9-23.9s10.7-23.9,23.9-23.9c3.6,0,6.9-0.8,10-2.2c8.2-3.8,13.9-12.1,13.9-21.7s-5.7-17.9-13.9-21.7
		c-3.1-1.4-6.4-2.2-10-2.2c-13.2,0-23.9-10.7-23.9-23.9s10.7-23.9,23.9-23.9s23.9,10.7,23.9,23.9c0,3.6,0.8,6.9,2.2,10
		c3.8,8.2,12.1,13.9,21.7,13.9s17.9-5.7,21.7-13.9c1.4-3.1,2.2-6.4,2.2-10c0-13.2,10.7-23.9,23.9-23.9c13.2,0,23.9,10.7,23.9,23.9
		S544.4,57.7,531.2,57.7z M551,81.6c0,10.9-8.9,19.8-19.8,19.8s-19.8-8.9-19.8-19.8s8.9-19.8,19.8-19.8S551,70.6,551,81.6z
		 M415.7,81.6c0-10.9,8.9-19.8,19.8-19.8c10.9,0,19.8,8.9,19.8,19.8s-8.9,19.8-19.8,19.8C424.6,101.4,415.7,92.5,415.7,81.6z"/>
	<g id="XMLID_16783_">
		<g id="XMLID_16797_">
			<path id="XMLID_16800_" class="st0" d="M30.7,69.2L19.6,52.6c-0.7-1.1-1.2-2.2-1.2-3.5c0-3,2.5-5.4,5.8-5.4
				c2.8,0,4.1,1.6,4.8,2.8L37.4,61l9-14.5c1.2-1.9,2.2-2.8,4.7-2.8c2.8,0,5.6,1.6,5.6,5.2c0,1-0.5,2.3-1.1,3.1L43.9,69.2l11.5,17.3
				c1.2,1.8,1.9,2.8,1.9,4.1c0,3.7-2.7,5.7-5.9,5.7c-1.9,0-3.5-0.4-4.9-2.7l-9.3-15.6l-10,16c-1,1.6-2.8,2.3-4.5,2.3
				c-3.4,0-5.6-2.1-5.6-4.9c0-1.2,0.2-2.5,1.6-4.5L30.7,69.2z"/>
			<path id="XMLID_16798_" class="st0" d="M75.9,54.3h-11c-3.3,0-6-1.7-6-4.9s2.7-4.9,6-4.9h33.5c3.3,0,6,1.7,6,4.9s-2.7,4.9-6,4.9
				h-11v36.3c0,3.5-2.3,5.8-5.8,5.8c-3.5,0-5.8-2.3-5.8-5.8V54.3z"/>
		</g>
		<g id="XMLID_16784_">
			<path id="XMLID_16795_" class="st0" d="M151.2,66c10.6,2.4,13.3,8.7,13.3,14.6c0,9.2-6.9,16-20.9,16c-14.7,0-21.3-7.4-21.3-12.9
				c0-2.8,2-4.8,4.9-4.8c6.3,0,4.7,9.2,16.4,9.2c6,0,9.3-3.3,9.3-6.7c0-2-1-4.3-4.9-5.3l-13.1-3.3c-10.5-2.7-12.4-8.5-12.4-13.9
				c0-11.3,10.5-15.6,20.3-15.6c9,0,19.7,5.1,19.7,11.9c0,2.9-2.5,4.6-5.3,4.6c-5.4,0-4.4-7.6-15.2-7.6c-5.4,0-8.3,2.5-8.3,6
				c0,3.5,4.2,4.7,7.9,5.5L151.2,66z"/>
			<path id="XMLID_16793_" class="st0" d="M173.5,49.4c0-4.7,3.2-5.7,6.3-5.7h3.4c3.6,0,5.3,1.4,6.5,5.3l10.1,32.7h0.1l10-32.7
				c1.2-3.9,2.9-5.3,6.5-5.3h3.3c3.1,0,6.3,1.1,6.3,5.7v41.4c0,2.9-1.4,5.7-5.2,5.7c-3.7,0-5.2-2.8-5.2-5.7V59.2h-0.1L204.7,93
				c-0.8,2.4-2.5,3.4-4.9,3.4c-2.4,0-4.2-1-4.9-3.4L184,59.2h-0.1v31.5c0,2.9-1.4,5.7-5.2,5.7c-3.7,0-5.2-2.8-5.2-5.7V49.4z"/>
			<path id="XMLID_16790_" class="st0" d="M251.6,47.2c1-2.6,2.8-3.5,5.7-3.5h2.8c2.6,0,4.9,0.6,6.2,4.2l14,38.9
				c0.4,1.1,1.1,3.2,1.1,4.5c0,2.8-2.5,5.1-5.4,5.1c-2.5,0-4.4-0.9-5.2-3.2l-3-8.5h-18.7l-3,8.5c-0.8,2.3-2.4,3.2-5.2,3.2
				c-3.2,0-5.4-2-5.4-5.1c0-1.3,0.7-3.3,1.1-4.5L251.6,47.2z M258.6,56.2h-0.1l-6.9,20.4h13.6L258.6,56.2z"/>
			<path id="XMLID_16787_" class="st0" d="M290.6,51.3c0-5.2,2.7-6.8,6.8-6.8h19.3c13.8,0,17.5,7.6,17.5,14.1c0,5.5-3.3,11-8.8,12.2
				v0.1c5.9,0.8,7,5.2,7,10.3c0,5.9,1.6,8.1,1.6,10.5c0,2.7-2.8,4.5-5.4,4.5c-6.4,0-6.9-6.2-6.9-8.2c0-8.9-1.6-12.5-8-12.5h-11.5
				v14.9c0,3.5-2.3,5.8-5.8,5.8c-3.5,0-5.8-2.3-5.8-5.8V51.3z M302.2,67.2h11.6c4.4,0,8.8-1.1,8.8-6.9c0-5.4-3.3-6.9-8.4-6.9h-11.9
				V67.2z"/>
			<path id="XMLID_16785_" class="st0" d="M354.1,54.3h-11c-3.3,0-6-1.7-6-4.9s2.7-4.9,6-4.9h33.5c3.3,0,6,1.7,6,4.9s-2.7,4.9-6,4.9
				h-11v36.3c0,3.5-2.3,5.8-5.8,5.8c-3.5,0-5.8-2.3-5.8-5.8V54.3z"/>
		</g>
	</g>
</g>
</svg>
