<?xml version="1.0" encoding="utf-8"?>
<!-- Generator: Adobe Illustrator 23.0.4, SVG Export Plug-In . SVG Version: 6.00 Build 0)  -->
<svg version="1.1" id="Layer_1" xmlns="http://www.w3.org/2000/svg" xmlns:xlink="http://www.w3.org/1999/xlink" x="0px" y="0px"
	 viewBox="0 0 22 44" style="enable-background:new 0 0 22 44;" xml:space="preserve">
<title>family-chapternav-iPhone-6-lf-lily</title>
<g id="Light">
	<path d="M18.8,0H3.2C1.4,0,0,1.4,0,3.2v37.6C0,42.6,1.4,44,3.2,44h15.6c1.8,0,3.2-1.4,3.2-3.2V3.2C22,1.4,20.6,0,18.8,0z M13.1,1.1
		c0.2,0,0.3,0.1,0.3,0.3s-0.1,0.3-0.3,0.3s-0.3-0.1-0.3-0.3l0,0C12.8,1.3,12.9,1.1,13.1,1.1z M10,1.2h2c0.1,0,0.2,0.1,0.2,0.2
		S12.1,1.7,12,1.7h-2c-0.1,0-0.2-0.1-0.2-0.2S9.9,1.2,10,1.2z M21,40.8c0,1.2-1,2.2-2.2,2.2H3.2C2,43,1,42,1,40.8V3.2C1,2,2,1,3.2,1
		h2.3C5.8,1,6,1.2,6,1.5V2c0,0.6,0.4,1,1,1h8c0.6,0,1-0.4,1-1V1.5C16,1.2,16.2,1,16.5,1h2.3C20,1,21,2,21,3.2l0,0V40.8z"/>
</g>
</svg>
