<svg id="outline" height="512" viewBox="0 0 512 512" width="512" xmlns="http://www.w3.org/2000/svg"><path d="m488 80h-8v-32a32.03635 32.03635 0 0 0 -32-32h-208a32.03635 32.03635 0 0 0 -32 32v416a32.03635 32.03635 0 0 0 32 32h208a32.03635 32.03635 0 0 0 32-32v-256h8a8.00008 8.00008 0 0 0 8-8v-32a8.00008 8.00008 0 0 0 -8-8h-8v-16h8a8.00008 8.00008 0 0 0 8-8v-48a8.00008 8.00008 0 0 0 -8-8zm-24 384a16.01833 16.01833 0 0 1 -16 16h-208a16.01833 16.01833 0 0 1 -16-16v-416a16.01833 16.01833 0 0 1 16-16h208a16.01833 16.01833 0 0 1 16 16z"/><path d="m248 448h48v16h-48z"/><path d="m320 448h48v16h-48z"/><path d="m392 448h48v16h-48z"/><path d="m240 48h24v16h-24z"/><path d="m424 48h24v16h-24z"/><path d="m280 392h-16a16.01833 16.01833 0 0 0 -16 16v16a16.01833 16.01833 0 0 0 16 16h16a16.01833 16.01833 0 0 0 16-16v-16a16.01833 16.01833 0 0 0 -16-16zm0 32h-16v-16h16l.01025 16z"/><path d="m352 392h-16a16.01833 16.01833 0 0 0 -16 16v16a16.01833 16.01833 0 0 0 16 16h16a16.01833 16.01833 0 0 0 16-16v-16a16.01833 16.01833 0 0 0 -16-16zm0 32h-16v-16h16l.01025 16z"/><path d="m424 392h-16a16.01833 16.01833 0 0 0 -16 16v16a16.01833 16.01833 0 0 0 16 16h16a16.01833 16.01833 0 0 0 16-16v-16a16.01833 16.01833 0 0 0 -16-16zm0 32h-16v-16h16l.01025 16z"/><path d="m192 480h-144a16.01833 16.01833 0 0 1 -16-16v-416a16.01833 16.01833 0 0 1 16-16h144v-16h-144a32.03635 32.03635 0 0 0 -32 32v416a32.03635 32.03635 0 0 0 32 32h144z"/><path d="m112 80a32 32 0 0 0 -64 0v32a32 32 0 0 0 64 0zm-16 32a16 16 0 0 1 -32 0v-32a16 16 0 0 1 32 0z"/><circle cx="80" cy="80" r="8"/><circle cx="80" cy="112" r="8"/><path d="m56 216h48v16h-48z"/><path d="m56 240h48v16h-48z"/><path d="m56 264h48v16h-48z"/><path d="m128 216h48v16h-48z"/><path d="m128 240h48v16h-48z"/><path d="m128 264h48v16h-48z"/><path d="m56 304h48v16h-48z"/><path d="m56 328h48v16h-48z"/><path d="m56 352h48v16h-48z"/><path d="m128 304h48v16h-48z"/><path d="m128 328h48v16h-48z"/><path d="m128 352h48v16h-48z"/><path d="m56 392h48v16h-48z"/><path d="m56 416h48v16h-48z"/><path d="m56 440h48v16h-48z"/><path d="m128 392h48v16h-48z"/><path d="m128 416h48v16h-48z"/><path d="m128 440h48v16h-48z"/></svg>