<?xml version="1.0" encoding="utf-8"?>
<!-- Generator: Adobe Illustrator 23.0.4, SVG Export Plug-In . SVG Version: 6.00 Build 0)  -->
<svg version="1.1" id="Layer_1" xmlns="http://www.w3.org/2000/svg" xmlns:xlink="http://www.w3.org/1999/xlink" x="0px" y="0px"
	 viewBox="0 0 16 18.3" style="enable-background:new 0 0 16 18.3;" xml:space="preserve">
<path d="M8,5.2c-0.7,0-1.9-0.8-3.1-0.8c-1.6,0-3,0.9-3.8,2.3c-1.6,2.8-0.4,7,1.2,9.3c0.8,1.1,1.7,2.4,2.9,2.3c1.2,0,1.6-0.8,3-0.8
	s1.8,0.8,3.1,0.7c1.3,0,2.1-1.1,2.8-2.3c0.9-1.3,1.3-2.6,1.3-2.6s-2.4-0.9-2.5-3.7c0-2.3,1.9-3.5,2-3.5c-1.1-1.6-2.8-1.8-3.4-1.8
	C10,4.3,8.7,5.2,8,5.2z M10.6,2.9c0.6-0.8,1.1-1.9,1-2.9c-0.9,0-2.1,0.6-2.7,1.4c-0.6,0.7-1.1,1.8-1,2.9C8.9,4.3,10,3.6,10.6,2.9"/>
</svg>
