<?xml version="1.0" encoding="utf-8"?>
<!-- Generator: Adobe Illustrator 23.0.4, SVG Export Plug-In . SVG Version: 6.00 Build 0)  -->
<svg version="1.1" id="Capa_1" xmlns="http://www.w3.org/2000/svg" xmlns:xlink="http://www.w3.org/1999/xlink" x="0px" y="0px"
	 viewBox="0 0 485.2 371.1" style="enable-background:new 0 0 485.2 371.1;" xml:space="preserve">
<g>
	<g>
		<g>
			<g>
				<path d="M440.8,122.7h-252c-24.4,0-44.4,20-44.4,44.4v159.6c0,24.4,20,44.4,44.4,44.4h252c24.4,0,44.4-20,44.4-44.4V167.1
					C485.3,142.6,465.2,122.7,440.8,122.7z M461.3,327.3c0,8.8-7.2,16.1-16.1,16.1H188.3c-8.8,0-16.1-7.2-16.1-16.1V215h289.1V327.3
					z M461.3,172.7H172.2v-6.1c0-8.8,7.2-16.1,16.1-16.1h256.9c8.8,0,16.1,7.2,16.1,16.1L461.3,172.7L461.3,172.7z"/>
			</g>
		</g>
		<g>
			<path d="M185.6,95.3h156.3l-31.8-64.4c-10.9-22-37.6-31-59.6-20.1L24.7,122.4C2.7,133.3-6.3,160,4.6,182l70.8,143.1
				c9.5,19.3,31.4,28.7,51.5,23.2c-6-10.1-9.4-21.8-9.4-34.3V163.5C117.4,126,148.1,95.3,185.6,95.3z"/>
		</g>
		<g>
			<path d="M217.7,326.1c8.7,0,16.6-3.9,21.8-10.1c5.3,6.2,13.1,10.1,21.8,10.1c15.9,0,28.8-12.9,28.8-28.8s-12.9-28.8-28.8-28.8
				c-8.7,0-16.6,3.9-21.8,10.1c-5.3-6.2-13.1-10.1-21.8-10.1c-15.9,0-28.8,12.9-28.8,28.8S201.8,326.1,217.7,326.1z"/>
		</g>
	</g>
</g>
</svg>
