<?xml version="1.0" encoding="utf-8"?>
<!-- Generator: Adobe Illustrator 23.0.4, SVG Export Plug-In . SVG Version: 6.00 Build 0)  -->
<svg version="1.1" id="Light" xmlns="http://www.w3.org/2000/svg" xmlns:xlink="http://www.w3.org/1999/xlink" x="0px" y="0px"
	 viewBox="0 0 25 41.9" style="enable-background:new 0 0 25 41.9;" xml:space="preserve">
<title>family-chapternav-watch-master-03-weir</title>
<path id="Apple_Watch_Series_1" d="M24,19v-5h-1v-1.7c0-0.8-0.2-1.5-0.6-2.2s-1.1-1.3-1.5-1.9c-0.6-0.9-1-1.9-1.3-3
	s-0.2-2.3-0.4-3.5c-0.2-0.8-0.9-1.4-1.7-1.4c-0.9-0.1-1.9-0.2-2.8-0.3s-2,0-3,0C9.8,0,8,0.1,6.1,0.4C5.6,0.6,5.1,1,5,1.6
	C4.9,2.1,4.8,3.5,4.7,4.2C4.6,5.8,3.9,7.4,2.8,8.6L2.3,9.1C1.5,10,1,11.1,1,12.3v17.3c0,1.2,0.5,2.4,1.4,3.2c1.3,1,2.1,2.5,2.2,4.1
	c0.2,1.2,0.1,2.3,0.3,3.5c0.2,0.6,0.7,1,1.3,1.1c2,0.3,4,0.5,6.1,0.4c1.9,0,3.7-0.1,5.6-0.4c0.6-0.1,1-0.6,1.2-1.1
	c0.1-0.5-0.1-3.2,0.8-4.8c0.3-0.6,1.7-2.7,1.7-2.7s0.2-0.2,0.2-0.3c0.8-0.8,1.3-1.9,1.3-3.1V19H24z M22,29.7c0.1,1.7-1.3,3.2-3,3.3
	H5c-1.7-0.1-3.1-1.6-3-3.3V12.3C1.9,10.6,3.3,9.1,5,9h14c1.7,0.1,3.1,1.6,3,3.3V29.7z"/>
</svg>
